<svg width="1200" height="630" viewBox="0 0 1200 630" fill="none" xmlns="http://www.w3.org/2000/svg">
  <rect width="1200" height="630" rx="40" fill="#0F172A"/>
  <circle cx="926" cy="131" r="170" fill="#FB8A69" fill-opacity="0.22"/>
  <circle cx="231" cy="520" r="190" fill="#F4C15D" fill-opacity="0.16"/>
  <rect x="70" y="70" width="1060" height="490" rx="34" fill="#111827" stroke="#334155" stroke-width="2"/>
  <rect x="118" y="118" width="84" height="84" rx="42" fill="#FB8A69"/>
  <path d="M141 172V146H148.8L160.4 161.2L172 146H179.8V172H171.3V158.5L160.4 172.7L149.5 158.5V172H141Z" fill="#0F172A"/>
  <text x="236" y="168" fill="#F8FAFC" font-family="Arial, sans-serif" font-size="28" font-weight="700" letter-spacing="6">MINISTRY OF SHORTHAND</text>
  <text x="118" y="290" fill="#F8FAFC" font-family="Arial, sans-serif" font-size="62" font-weight="700">Learn shorthand with structure</text>
  <text x="118" y="366" fill="#94A3B8" font-family="Arial, sans-serif" font-size="30">Courses, timed practice, live support, and measurable progress</text>
  <rect x="118" y="432" width="238" height="64" rx="20" fill="#FB8A69"/>
  <text x="162" y="473" fill="#0F172A" font-family="Arial, sans-serif" font-size="24" font-weight="700">Explore Courses</text>
  <rect x="842" y="256" width="190" height="196" rx="28" fill="#0B1220" stroke="#334155" stroke-width="2"/>
  <rect x="872" y="290" width="94" height="14" rx="7" fill="#FB8A69"/>
  <rect x="872" y="328" width="120" height="14" rx="7" fill="#475569"/>
  <rect x="872" y="366" width="120" height="14" rx="7" fill="#475569"/>
  <rect x="872" y="404" width="120" height="14" rx="7" fill="#475569"/>
</svg>
